<mxfile host="app.diagrams.net" modified="2024-04-25T06:24:38.852Z" agent="Mozilla/5.0 (Windows NT 10.0; Win64; x64) AppleWebKit/537.36 (KHTML, like Gecko) Chrome/119.0.6045.160 Safari/537.36" version="24.2.8" etag="kC7OX3MvRHXzJIVejpi6" type="github">
  <diagram name="第 1 页" id="9ASBoeiQB_be6pBrlLnt">
    <mxGraphModel>
      <root>
        <mxCell id="0" />
        <mxCell id="1" parent="0" />
      </root>
    </mxGraphModel>
  </diagram>
</mxfile>
